<svg xmlns="http://www.w3.org/2000/svg" viewBox="0 0 860 650" fill="none"><defs><radialGradient id="m" cx="0" cy="0" r="1" gradientTransform="matrix(0 281.3 -372 0 430 296)" gradientUnits="userSpaceOnUse"><stop stop-color="#BBD58C" stop-opacity=".84"/><stop offset=".68" stop-color="#7E5A98" stop-opacity=".24"/><stop offset="1" stop-color="#F4F0F5" stop-opacity="0"/></radialGradient><linearGradient id="l" x1="160" y1="68" x2="706" y2="602" gradientUnits="userSpaceOnUse"><stop stop-color="#C9E295"/><stop offset=".45" stop-color="#8BAC5F"/><stop offset="1" stop-color="#6D2C9C"/></linearGradient><filter id="s" x="-60" y="-60" width="980" height="770" filterUnits="userSpaceOnUse"><feGaussianBlur stdDeviation="30"/></filter></defs><ellipse cx="430" cy="315" rx="370" ry="280" fill="url(#m)" filter="url(#s)"/><g opacity=".30" stroke="#4B3658" stroke-width="1.2"><path d="M56 517h748M111 469h646M177 421h514M241 373h384M308 325h249"/><path d="M166 512V395M226 512V354M282 512V408M340 512V315M397 512V361M452 512V296M508 512V379M566 512V327M630 512V407M697 512V357"/></g><path d="M435 576c-23-67-30-140-19-218 11-78 43-143 96-193 2 73-13 143-45 207-28 56-65 106-111 149" stroke="url(#l)" stroke-width="22" stroke-linecap="round"/><path d="M415 349c-69-45-142-62-219-49 45 66 107 101 187 106M476 293c59-51 128-74 207-68-32 69-86 112-161 128M376 441c-49-13-95-5-138 25 43 35 89 43 137 24M500 424c51-20 99-19 145 4-37 45-84 61-141 49" stroke="url(#l)" stroke-width="17" stroke-linecap="round" stroke-linejoin="round"/><circle cx="431" cy="315" r="252" stroke="#4B3658" stroke-opacity=".34" stroke-width="1.5"/><circle cx="431" cy="315" r="189" stroke="#4B3658" stroke-opacity=".24" stroke-width="1.5"/></svg>