<svg xmlns="http://www.w3.org/2000/svg" viewBox="0 0 88 88" fill="none"><defs><linearGradient id="g" x1="14" y1="16" x2="77" y2="73" gradientUnits="userSpaceOnUse"><stop stop-color="#B8D182"/><stop offset="1" stop-color="#6A2D9B"/></linearGradient></defs><path d="M43.9 74.7c-4.8-11.5-6.6-24.2-5.3-37.2 1.3-13.4 6.4-25.1 15.2-34.4 1.1 12.3-1 24.5-6.5 35.8-4.5 9.3-10.2 17.4-17.1 24.4" stroke="url(#g)" stroke-width="5" stroke-linecap="round"/><path d="M44.6 38.1c-8.9-5.4-18.9-7.7-29.9-6.6 6 8.5 14.3 13.6 25.1 15.3M47.8 31.7c7.9-6.4 17-9.2 27.5-8.4-4.8 9.2-12.2 15.3-22.3 18.3M39.9 51.4c-7.1-.6-13.8 1.1-20.1 5.1 6.1 5.1 12.8 6.4 20.1 4M49.5 50.1c6.6-2.9 13.4-3.5 20.4-1.8-4.8 6.4-11.2 9.2-19.3 8.6" stroke="url(#g)" stroke-width="4" stroke-linecap="round"/><circle cx="44" cy="44" r="40" stroke="#7A5B93" stroke-opacity=".32" stroke-width="1.5"/></svg>